HIERARCHY
ROOT Hips
{
	OFFSET 0.000000 0.000000 0.000000
	CHANNELS 6 Xposition Yposition Zposition Zrotation Yrotation Xrotation 
	JOINT LowerBack
	{
		OFFSET 0.000000 0.000000 0.000000
		CHANNELS 3 Zrotation Yrotation Xrotation
		JOINT Spine
		{
			OFFSET 0.028270 2.035590 -0.193380
			CHANNELS 3 Zrotation Yrotation Xrotation
			JOINT Spine1
			{
				OFFSET 0.056720 2.048850 -0.042750
				CHANNELS 3 Zrotation Yrotation Xrotation
				JOINT Neck
				{
					OFFSET 0.000000 0.000000 0.000000
					CHANNELS 3 Zrotation Yrotation Xrotation
					JOINT Neck1
					{
						OFFSET -0.054170 1.746240 0.172020
						CHANNELS 3 Zrotation Yrotation Xrotation
						JOINT Head
						{
							OFFSET 0.104070 1.761360 -0.123970
							CHANNELS 3 Zrotation Yrotation Xrotation
							End Site
							{
								OFFSET 0.000000 0.000000 0.000000
							}
						}
					}
				}
				JOINT LeftShoulder
				{
					OFFSET 0.000000 0.000000 0.000000
					CHANNELS 3 Zrotation Yrotation Xrotation
					JOINT LeftArm
					{
						OFFSET 3.362410 1.200890 -0.311210
						CHANNELS 3 Zrotation Yrotation Xrotation
						JOINT LeftForeArm
						{
							OFFSET 4.983000 -0.000000 -0.000000
							CHANNELS 3 Zrotation Yrotation Xrotation
							JOINT LeftHand
							{
								OFFSET 3.483560 -0.000000 -0.000000
								CHANNELS 3 Zrotation Yrotation Xrotation
								JOINT LeftFingerBase
								{
									OFFSET 0.000000 0.000000 0.000000
									CHANNELS 3 Zrotation Yrotation Xrotation
									JOINT LeftHandIndex1
									{
										OFFSET 0.715260 -0.000000 -0.000000
										CHANNELS 3 Zrotation Yrotation Xrotation
										End Site
										{
											OFFSET 0.000000 0.000000 0.000000
										}
									}
								}
								JOINT LThumb
								{
									OFFSET 0.000000 0.000000 0.000000
									CHANNELS 3 Zrotation Yrotation Xrotation
									End Site
									{
										OFFSET 0.000000 0.000000 0.000000
									}
								}
							}
						}
					}
				}
				JOINT RightShoulder
				{
					OFFSET 0.000000 0.000000 0.000000
					CHANNELS 3 Zrotation Yrotation Xrotation
					JOINT RightArm
					{
						OFFSET -3.136600 1.374050 -0.404650
						CHANNELS 3 Zrotation Yrotation Xrotation
						JOINT RightForeArm
						{
							OFFSET -5.241900 -0.000000 -0.000000
							CHANNELS 3 Zrotation Yrotation Xrotation
							JOINT RightHand
							{
								OFFSET -3.444170 -0.000000 -0.000000
								CHANNELS 3 Zrotation Yrotation Xrotation
								JOINT RightFingerBase
								{
									OFFSET 0.000000 0.000000 0.000000
									CHANNELS 3 Zrotation Yrotation Xrotation
									JOINT RightHandIndex1
									{
										OFFSET -0.622530 -0.000000 -0.000000
										CHANNELS 3 Zrotation Yrotation Xrotation
										End Site
										{
											OFFSET 0.000000 0.000000 0.000000
										}
									}
								}
								JOINT RThumb
								{
									OFFSET 0.000000 0.000000 0.000000
									CHANNELS 3 Zrotation Yrotation Xrotation
									End Site
									{
										OFFSET 0.000000 0.000000 0.000000
									}
								}
							}
						}
					}
				}
			}
		}
	}
}
}
MOTION
Frames: 12
Frame Time: 0.008333
7.433607 17.446911 2.383234 177.949167 -86.731351 -163.162216 -1.726376 -1.355286 3.234010 -1.342137 -1.233586 -2.172211 -7.703507 -1.254424 0.903022 9.725878 -3.392897 -3.582680 -3.899501 -0.318231 0.914168 0.000000 0.000000 0.000000 -5.152379 2.542117 2.644056 -47.064378 -18.967271 18.718413 -3.205395 -42.035881 -0.002727 3.270147 -0.008143 -0.001808 -0.170458 0.093469 0.000000 0.000000 0.000000 0.000000 0.000000 0.000000 0.000000 16.767288 -2.429776 1.150066 64.588154 1.473778 3.942225 3.590299 24.241465 0.008901 6.224437 4.328123 0.235812 0.054383 -0.038654 0.000000 0.000000 0.000000 0.000000 0.000000 0.000000 0.000000 
7.301930 17.449806 2.376576 179.397733 -86.660451 -164.699990 -1.546162 -1.453837 3.226563 -1.299685 -1.340461 -2.149375 -7.695149 -1.354312 0.944281 9.737176 -3.722709 -3.626695 -3.863192 -0.315440 0.906034 0.000000 0.000000 0.000000 -4.900416 2.406201 2.663135 -46.252264 -19.804623 18.500844 -3.139976 -42.839454 -0.003406 3.414677 -0.009831 -0.002185 -0.173027 0.101782 0.000000 0.000000 0.000000 0.000000 0.000000 0.000000 0.000000 16.660923 -2.780478 1.129799 64.551676 0.928011 4.491658 3.559190 25.061500 0.008733 6.218452 4.357174 0.237110 0.053394 -0.037606 0.000000 0.000000 0.000000 0.000000 0.000000 0.000000 0.000000 
7.170498 17.450514 2.367762 -179.747514 -86.595297 -165.629465 -1.406682 -1.555664 3.210928 -1.265694 -1.449177 -2.127674 -7.684008 -1.456138 0.986930 9.752365 -4.055179 -3.672991 -3.826250 -0.312620 0.897118 0.000000 0.000000 0.000000 -4.633863 2.280195 2.680176 -45.408338 -20.607848 18.243118 -3.070659 -43.634829 -0.004167 3.538837 0.011947 -0.001867 -0.175167 0.110058 0.000000 0.000000 0.000000 0.000000 0.000000 0.000000 0.000000 16.559785 -3.133010 1.108483 64.503041 0.387654 5.052871 3.526363 25.915787 0.008557 6.243314 4.377325 0.239108 0.052150 -0.036559 0.000000 0.000000 0.000000 0.000000 0.000000 0.000000 0.000000 
7.039115 17.449018 2.356918 -179.470652 -86.540179 -165.963786 -1.307413 -1.661328 3.185649 -1.239946 -1.560354 -2.106871 -7.669759 -1.560486 1.033143 9.771434 -4.399423 -3.723993 -3.788704 -0.309748 0.886806 0.000000 0.000000 0.000000 -4.355760 2.165485 2.693751 -44.535953 -21.378023 17.946274 -2.997359 -44.421053 -0.004981 3.640903 0.051674 -0.000853 -0.176801 0.118283 0.000000 0.000000 0.000000 0.000000 0.000000 0.000000 0.000000 16.465280 -3.498684 1.085831 64.436814 -0.130051 5.641656 3.492612 26.786408 0.008384 6.293890 4.400550 0.242407 0.050720 -0.035536 0.000000 0.000000 0.000000 0.000000 0.000000 0.000000 0.000000 
6.907945 17.445291 2.344211 -179.739492 -86.497367 -165.740709 -1.246096 -1.770113 3.156051 -1.221980 -1.673187 -2.085899 -7.652181 -1.666513 1.083161 9.794561 -4.760796 -3.781273 -3.750705 -0.306808 0.874627 0.000000 0.000000 0.000000 -4.066832 2.061542 2.702911 -43.642970 -22.118334 17.610504 -2.920280 -45.193935 -0.005818 3.720444 0.102776 0.000557 -0.177862 0.126480 0.000000 0.000000 0.000000 0.000000 0.000000 0.000000 0.000000 16.378801 -3.883216 1.062352 64.349879 -0.617290 6.251003 3.458437 27.668040 0.008222 6.370101 4.428423 0.246905 0.049127 -0.034567 0.000000 0.000000 0.000000 0.000000 0.000000 0.000000 0.000000 
6.776618 17.439248 2.329896 179.516999 -86.467761 -165.027351 -1.216252 -1.881525 3.118811 -1.210383 -1.787597 -2.066453 -7.630991 -1.774426 1.133545 9.819676 -5.124181 -3.839960 -3.712408 -0.303860 0.861983 0.000000 0.000000 0.000000 -3.769670 1.963919 2.708291 -42.736837 -22.817083 17.235873 -2.839669 -45.957003 -0.006660 3.780361 0.160775 0.002262 -0.178347 0.134674 0.000000 0.000000 0.000000 0.000000 0.000000 0.000000 0.000000 16.295764 -4.271167 1.038289 64.245904 -1.092128 6.848222 3.424218 28.560268 0.008076 6.473433 4.465997 0.253103 0.047356 -0.033695 0.000000 0.000000 0.000000 0.000000 0.000000 0.000000 0.000000 
6.645208 17.430797 2.314223 178.369678 -86.450616 -163.898585 -1.211306 -1.994410 3.075381 -1.203764 -1.902687 -2.048941 -7.605926 -1.883455 1.182091 9.845085 -5.483652 -3.898535 -3.673844 -0.300915 0.849330 0.000000 0.000000 0.000000 -3.465406 1.870866 2.709768 -41.827996 -23.470138 16.823939 -2.755857 -46.710803 -0.007495 3.823950 0.221306 0.004065 -0.178260 0.142900 0.000000 0.000000 0.000000 0.000000 0.000000 0.000000 0.000000 16.212879 -4.655370 1.014128 64.127065 -1.564135 7.407716 3.390095 29.465694 0.007948 6.602299 4.512733 0.260800 0.045420 -0.032962 0.000000 0.000000 0.000000 0.000000 0.000000 0.000000 0.000000 
6.513519 17.419838 2.297430 176.869369 -86.441169 -162.408660 -1.227074 -2.108188 3.032583 -1.200930 -2.017787 -2.030081 -7.575291 -1.992545 1.236187 9.868458 -5.872324 -3.967973 -3.633459 -0.297745 0.833651 0.000000 0.000000 0.000000 -3.154924 1.796915 2.703250 -40.928672 -24.098508 16.378699 -2.668900 -47.445537 -0.008307 3.856037 0.277212 0.005763 -0.177578 0.151200 0.000000 0.000000 0.000000 0.000000 0.000000 0.000000 0.000000 16.126255 -5.070564 0.989541 63.985998 -1.980864 7.990012 3.356089 30.352194 0.007879 6.722379 4.592803 0.270401 0.043602 -0.032492 0.000000 0.000000 0.000000 0.000000 0.000000 0.000000 0.000000 
6.381361 17.406223 2.279707 175.102269 -86.438220 -160.644655 -1.255123 -2.220824 2.986662 -1.200398 -2.131443 -2.014153 -7.540315 -2.100928 1.283317 9.887759 -6.239922 -4.032561 -3.592613 -0.294603 0.819306 0.000000 0.000000 0.000000 -2.838660 1.724152 2.693152 -40.046817 -24.669674 15.901574 -2.579517 -48.176708 -0.009110 3.880900 0.331396 0.007458 -0.176417 0.159579 0.000000 0.000000 0.000000 0.000000 0.000000 0.000000 0.000000 16.030354 -5.461688 0.965756 63.839309 -2.420880 8.482337 3.321712 31.260288 0.007836 6.857942 4.680729 0.281201 0.041668 -0.032267 0.000000 0.000000 0.000000 0.000000 0.000000 0.000000 0.000000 
6.248767 17.389847 2.261176 173.090151 -86.434990 -158.637442 -1.294993 -2.331876 2.948683 -1.201678 -2.242790 -1.996374 -7.499141 -2.207177 1.332987 9.901403 -6.628681 -4.106413 -3.549262 -0.291189 0.802359 0.000000 0.000000 0.000000 -2.516453 1.672499 2.674781 -39.193264 -25.213715 15.399181 -2.487839 -48.891822 -0.009895 3.902360 0.377889 0.008851 -0.174763 0.168068 0.000000 0.000000 0.000000 0.000000 0.000000 0.000000 0.000000 15.921825 -5.872501 0.942247 63.679021 -2.818396 8.963296 3.286578 32.153629 0.007863 6.966824 4.801772 0.293102 0.039961 -0.032425 0.000000 0.000000 0.000000 0.000000 0.000000 0.000000 0.000000 
6.115436 17.370646 2.241881 170.908868 -86.429657 -156.463183 -1.341118 -2.440053 2.916816 -1.203724 -2.350878 -1.978850 -7.452803 -2.310675 1.379117 9.908288 -7.013349 -4.181718 -3.504141 -0.287630 0.784987 0.000000 0.000000 0.000000 -2.190101 1.634133 2.650580 -38.371157 -25.715031 14.876592 -2.394454 -49.601518 -0.010677 3.923205 0.420654 0.010040 -0.172722 0.176629 0.000000 0.000000 0.000000 0.000000 0.000000 0.000000 0.000000 15.798010 -6.275017 0.919431 63.514958 -3.214395 9.374807 3.250075 33.054142 0.007943 7.056538 4.940238 0.305505 0.038388 -0.032959 0.000000 0.000000 0.000000 0.000000 0.000000 0.000000 0.000000 
5.981482 17.348584 2.221832 168.599385 -86.418245 -154.171778 -1.392344 -2.544395 2.896942 -1.206300 -2.454589 -1.960858 -7.401761 -2.410309 1.419926 9.908290 -7.389491 -4.256965 -3.457416 -0.283946 0.767542 0.000000 0.000000 0.000000 -1.859184 1.607005 2.620964 -37.584982 -26.170392 14.337613 -2.299799 -50.309925 -0.011459 3.943896 0.460659 0.011228 -0.170336 0.185231 0.000000 0.000000 0.000000 0.000000 0.000000 0.000000 0.000000 15.658436 -6.663392 0.897574 63.350663 -3.615939 9.706182 3.211479 33.966187 0.008080 7.119812 5.092599 0.317809 0.036979 -0.033898 0.000000 0.000000 0.000000 0.000000 0.000000 0.000000 0.000000 
